<svg xmlns="http://www.w3.org/2000/svg" viewBox="0 0 108 108">
  <defs>
    <radialGradient id="a" cx="54" cy="54.3" r="30" fx="54" fy="54.3" gradientTransform="matrix(1 0 0 1.15 0 -7.2)" gradientUnits="userSpaceOnUse">
      <stop offset=".69" stop-color="#45bcf6"/>
      <stop offset=".95" stop-color="#45baf6" stop-opacity="0"/>
    </radialGradient>
    <linearGradient id="b" x1="28" x2="80" y1="80" y2="28" gradientUnits="userSpaceOnUse">
      <stop offset="0" stop-color="#3a76f2"/>
      <stop offset="1" stop-color="#45bcf6"/>
    </linearGradient>
  </defs>
  
  <!-- 盾牌图标主体，增大到更好地填满66dp安全圆形区域 -->
  <g transform="translate(54, 54)">
    <!-- 盾牌图标缩放增大，更充分利用安全区域 -->
    <g transform="scale(0.75)">
      <g transform="translate(-47.3, -48)">
        <path fill="url(#a)" d="M20.24 16.94c9.82-1.5 11.37-0.91 25.53-8.91 0.46-0.25 2.74-0.33 3.30-0.09 7.94 3.47 13.36 6.85 26.12 8.32 3.29 0.38 5.62 4.80 5.62 6.05 0 0 0.28 19.48 0.28 26.19 0 9.80-7.29 29.05-31.45 36.84-0.85 0.27-2.01 0.35-2.86 0.15-23.35-6.12-32.61-25.06-32.61-36.53 0-17.66 0.21-16.08 0.15-26.14-0.02-3.53 3.43-6.47 5.92-6.85Z"/>
        <path fill="url(#b)" d="M23.61 20.77c8.56-1.30 9.92-0.80 22.28-7.78 0.40-0.22 2.39-0.29 2.88-0.08 6.92 3.02 11.65 5.98 22.78 7.26 2.87 0.33 4.90 4.19 4.90 5.28 0 0 0.24 16.99 0.24 22.86 0 8.55-6.36 25.36-27.45 32.16-0.74 0.24-1.75 0.31-2.49 0.13-20.39-5.34-28.46-21.87-28.46-31.89 0-15.42 0.18-14.04 0.14-22.82-0.01-3.08 2.99-5.64 5.18-5.97Z"/>
        <path fill="#fff" d="M69.07 26.57c-8.73-1.21-15.38-4.15-20.81-6.53-0.38-0.17-0.97-0.17-1.29 0-9.71 4.80-13.36 5.32-20.12 6.35-1.70 0.26-2.08 1.48-2.08 2.51-0.04 7.03-0.18 9.39-0.01 21.40 0.19 13.15 14.44 21.89 21.26 24.34 0.57 0.20 2.67 0.16 3.24-0.03 16.18-5.47 21.38-19.16 21.38-24.30V28.34c0-0.85-0.76-1.61-1.60-1.74Zm-7.62 23.49c0 4.20-5.59 11.56-12.97 13.17-0.35 0.08-1.24 0.13-1.59 0.04-2.74-0.64-12.59-7.64-12.71-13.22-0.14-7.14-0.02-7.79 0.00-11.97 0.00-0.61 0.85-2.18 1.86-2.34 4.00-0.61 5.55-0.83 11.32-3.67 0.19-0.10 0.54-0.10 0.76 0 3.23 1.41 6.14 3.26 11.35 3.73 1.08 0.10 1.96 1.57 1.96 1.97v12.27Z"/>
      </g>
    </g>
  </g>
</svg> 