<svg xmlns="http://www.w3.org/2000/svg" viewBox="0 0 1024 1024">
  <defs>
    <radialGradient id="a" cx="512" cy="512.5" r="280" fx="512" fy="512.5" gradientTransform="matrix(1 0 0 1.15 0 -61)" gradientUnits="userSpaceOnUse">
      <stop offset=".69" stop-color="#45bcf6"/>
      <stop offset=".95" stop-color="#45baf6" stop-opacity="0"/>
    </radialGradient>
    <linearGradient id="b" x1="300" x2="724" y1="690" y2="266" gradientUnits="userSpaceOnUse">
      <stop offset="0" stop-color="#3a76f2"/>
      <stop offset="1" stop-color="#45bcf6"/>
    </linearGradient>
  </defs>
  
  <!-- 添加背景以确保图标在所有平台上有适当的边距 -->
  <rect width="1024" height="1024" fill="#ffffff" rx="225" ry="225"/>
  
  <!-- 盾牌图标主体，进一步缩小并居中在更安全的区域内 -->
  <g transform="translate(512, 512)">
    <g transform="scale(0.6)">
      <g transform="translate(-473, -473)">
        <path fill="url(#a)" d="M202.41 169.37c98.19-14.95 113.69-9.12 255.34-79.15 4.63-2.5 27.44-3.3 32.97-.88 79.34 34.71 133.58 68.46 261.24 83.24 32.88 3.81 56.18 48.02 56.18 60.52 0 0 2.78 194.74 2.78 261.95 0 98.04-72.84 290.29-314.49 368.06-8.5 2.73-20.06 3.55-28.58 1.32-233.42-61.22-326.11-250.59-326.11-365.13 0-176.54 2.08-160.69 1.55-261.44-.19-35.29 34.32-64.73 59.1-68.51Z"/>
        <path fill="url(#b)" d="M235.98 205.8c85.65-13.04 99.17-7.95 222.73-69.04 4.04-2.18 23.94-2.88 28.76-.77 69.21 30.28 116.52 59.72 227.88 72.61 28.68 3.32 49.01 41.89 49.01 52.79 0 0 2.43 169.87 2.43 228.5 0 85.52-63.54 253.21-274.33 321.06-7.41 2.39-17.5 3.1-24.93 1.15-203.61-53.4-284.46-218.59-284.46-318.5 0-153.99 1.82-140.17 1.36-228.05-.16-30.78 29.94-56.47 51.56-59.76Z"/>
        <path fill="#fff" d="M687.2 265.98c-87.27-12.06-153.65-41.49-208.04-65.29-3.79-1.66-9.68-1.71-12.86 0-97.1 48.01-133.64 53.22-200.95 63.47-16.99 2.59-20.76 14.78-20.81 25.14-.38 70.29-1.85 93.88-.06 213.94 1.96 131.52 144.38 218.81 212.55 243.35 5.68 2.04 26.66 1.62 32.46-.34 161.8-54.7 213.75-191.65 213.75-243.11V283.29c0-8.57-7.55-16.15-16.04-17.33Zm-76.13 234.79c0 41.97-55.94 115.68-129.65 131.77-3.55.78-12.45 1.31-15.94.48-27.42-6.46-125.98-76.4-127.09-132.19-1.42-71.35-.24-77.88-.01-119.66.03-6.16 8.53-21.85 18.62-23.39 40.01-6.09 55.52-8.25 113.23-36.78 1.89-1.02 5.39-.99 7.64 0 32.33 14.14 61.37 32.64 113.54 37.25 10.82.96 19.65 15.7 19.65 19.75v122.78Z"/>
      </g>
    </g>
  </g>
</svg>